<svg data-v-0dd9719b="" version="1.0" xmlns="http://www.w3.org/2000/svg" xmlns:xlink="http://www.w3.org/1999/xlink" width="100%" height="100%" viewBox="0 0 340.000000 250.000000" preserveAspectRatio="xMidYMid meet" color-interpolation-filters="sRGB" style="margin: auto;">
  <rect data-v-0dd9719b="" x="0" y="0" width="100%" height="100%" fill="#fff" fill-opacity="1" class="background"></rect>
  <g data-v-0dd9719b="" fill="#333" class="icon-text-wrapper icon-svg-group iconsvg" transform="translate(80.53500366210938,79.63819122314453)">
    <g class="iconsvg-imagesvg" transform="translate(59.46499443054199,0)">
      <g>
        <rect fill="#333" fill-opacity="0" stroke-width="2" x="0" y="0" width="60" height="59.083613159890106" class="image-rect"></rect>
        <svg x="0" y="0" width="60" height="59.083613159890106" filtersec="colorsb857661746" class="image-svg-svg primary" style="overflow: visible;">
          <svg xmlns="http://www.w3.org/2000/svg" viewBox="0 -0.0000014452295999944909 101.5572280883789 100.00597381591797">
            <title>资源 329</title>
            <g fill-rule="evenodd">
              <path d="M48.8 0h2.05c14 0 25.79 4.92 35.77 14.73s14.93 21.45 14.93 35.41a47.18 47.18 0 0 1-14.91 35.25A49.27 49.27 0 0 1 50.85 100H15.79a61.92 61.92 0 0 0 47.49-60.2A61.62 61.62 0 0 0 48.8 0z" fill="#333"></path>
              <path d="M0 81.49V50.14c0-14 5-25.63 15-35.4a55.06 55.06 0 0 1 8-6.5A54.91 54.91 0 0 1 28.84 33 55.09 55.09 0 0 1 0 81.49z" fill="#fd6727"></path>
              <path d="M0 94.89v-5.81A61.9 61.9 0 0 0 35.62 33a61.7 61.7 0 0 0-6.78-28.15A48.14 48.14 0 0 1 40.48 1a54.93 54.93 0 0 1 16 38.83A55.11 55.11 0 0 1 1.39 94.91z" fill="#fd6727"></path>
            </g>
          </svg>
        </svg>
        <!---->
      </g>
    </g>
    <g transform="translate(0,66.08361434936523)">
      <g data-gra="path-name" fill-rule="" class="tp-name iconsvg-namesvg">
        <g transform="scale(1)">
          <g>
            <path d="M13.63-15.62L13.63-15.62 4.17-15.62 4.17-11.04 11.2-11.04 12.01-7.81 4.17-7.81 4.17-3.23 13.63-3.23 13.63 0 0.94 0 0.94-18.85 13.63-18.85 13.63-15.62ZM22.76-13.84L22.76-13.84Q24.24-13.84 25.49-13.29 26.74-12.74 27.66-11.77 28.57-10.8 29.08-9.51 29.6-8.21 29.6-6.73L29.6-6.73Q29.6-5.28 29.08-3.99 28.57-2.69 27.66-1.72 26.74-0.75 25.49-0.2 24.24 0.35 22.76 0.35L22.76 0.35Q21.11 0.35 19.87-0.27L19.87-0.27 21.03-3.15Q21.68-2.88 22.49-2.88L22.49-2.88Q23.27-2.88 23.97-3.16 24.67-3.45 25.23-4.01L25.23-4.01Q26.36-5.14 26.36-6.73L26.36-6.73Q26.36-8.35 25.23-9.48L25.23-9.48Q24.05-10.61 22.49-10.61L22.49-10.61Q20.87-10.61 19.74-9.48L19.74-9.48Q18.61-8.35 18.61-6.73L18.61-6.73 18.61-1.08 18.61 5.39 15.38 5.39 15.38-13.49 18.61-13.49 18.61-12.41Q19.39-13.03 20.41-13.44 21.44-13.84 22.76-13.84ZM38-13.84L38-13.84Q39.32-13.84 40.39-13.34 41.47-12.85 42.24-11.97 43.01-11.1 43.42-9.94 43.84-8.78 43.84-7.46L43.84-7.46 43.84 0 40.61 0 40.61-7.46Q40.61-8.11 40.37-8.67 40.13-9.24 39.67-9.69L39.67-9.69Q38.75-10.61 37.46-10.61L37.46-10.61Q36.14-10.61 35.22-9.69L35.22-9.69Q34.31-8.78 34.31-7.46L34.31-7.46 34.31 0 31.08 0 31.08-18.85 34.31-18.85 34.31-12.39Q35.04-13.03 35.95-13.44 36.87-13.84 38-13.84ZM59.08-5.12L55.69-5.12 48.64-5.12Q48.9-4.5 49.42-4.01L49.42-4.01Q49.98-3.45 50.68-3.16 51.38-2.88 52.16-2.88L52.16-2.88Q53.27-2.88 54.13-3.39L54.13-3.39 57.5-2.05Q56.53-0.92 55.15-0.28 53.78 0.35 52.16 0.35L52.16 0.35Q50.68 0.35 49.39-0.2 48.1-0.75 47.13-1.72 46.16-2.69 45.61-3.99 45.05-5.28 45.05-6.73L45.05-6.73Q45.05-8.21 45.61-9.51 46.16-10.8 47.13-11.77 48.1-12.74 49.39-13.29 50.68-13.84 52.16-13.84L52.16-13.84Q53.64-13.84 54.94-13.29 56.23-12.74 57.2-11.77 58.17-10.8 58.72-9.51 59.27-8.21 59.27-6.73L59.27-6.73Q59.27-5.87 59.08-5.12L59.08-5.12ZM52.16-10.61L52.16-10.61Q50.6-10.61 49.42-9.48L49.42-9.48Q48.9-8.97 48.64-8.35L48.64-8.35 55.69-8.35Q55.42-8.97 54.91-9.48L54.91-9.48Q53.78-10.61 52.16-10.61ZM75.05-13.84L75.05-13.84Q76.18-13.84 77.03-13.41 77.88-12.98 78.42-12.23 78.96-11.47 79.23-10.48 79.5-9.48 79.5-8.32L79.5-8.32 79.5 0 76.27 0 76.27-8.32Q76.27-9.26 75.59-9.94L75.59-9.94Q74.95-10.61 73.98-10.61L73.98-10.61Q73.01-10.61 72.36-9.94L72.36-9.94Q71.69-9.26 71.69-8.32L71.69-8.32 71.69 0 68.46 0 68.46-8.32Q68.46-9.26 67.78-9.94L67.78-9.94Q67.46-10.29 67.04-10.45 66.62-10.61 66.17-10.61L66.17-10.61Q65.17-10.61 64.52-9.94L64.52-9.94Q63.85-9.26 63.85-8.32L63.85-8.32 63.85 0 60.62 0 60.62-13.46 63.85-13.46 63.85-12.28Q64.63-12.95 65.49-13.4 66.36-13.84 67.24-13.84L67.24-13.84Q68.46-13.84 69.24-13.36 70.02-12.87 70.64-12.01L70.64-12.01Q71.36-12.79 72.52-13.32 73.68-13.84 75.05-13.84ZM94.87-5.12L91.48-5.12 84.43-5.12Q84.69-4.5 85.21-4.01L85.21-4.01Q85.77-3.45 86.47-3.16 87.17-2.88 87.95-2.88L87.95-2.88Q89.06-2.88 89.92-3.39L89.92-3.39 93.29-2.05Q92.32-0.92 90.94-0.28 89.57 0.35 87.95 0.35L87.95 0.35Q86.47 0.35 85.18-0.2 83.89-0.75 82.92-1.72 81.95-2.69 81.4-3.99 80.84-5.28 80.84-6.73L80.84-6.73Q80.84-8.21 81.4-9.51 81.95-10.8 82.92-11.77 83.89-12.74 85.18-13.29 86.47-13.84 87.95-13.84L87.95-13.84Q89.43-13.84 90.73-13.29 92.02-12.74 92.99-11.77 93.96-10.8 94.51-9.51 95.06-8.21 95.06-6.73L95.06-6.73Q95.06-5.87 94.87-5.12L94.87-5.12ZM87.95-10.61L87.95-10.61Q86.39-10.61 85.21-9.48L85.21-9.48Q84.69-8.97 84.43-8.35L84.43-8.35 91.48-8.35Q91.21-8.97 90.7-9.48L90.7-9.48Q89.57-10.61 87.95-10.61ZM99.78-12.44L99.78-12.44Q100.53-13.06 101.49-13.46 102.44-13.87 103.65-13.87L103.65-13.87 103.65-10.64Q102.04-10.64 100.91-9.51L100.91-9.51Q99.78-8.32 99.78-6.76L99.78-6.76 99.78 0 96.54 0 96.54-6.76 96.54-13.49 99.78-13.49 99.78-12.44ZM114.88-13.49L118.11-13.49 118.11 0 114.88 0 114.88-6.73Q114.88-8.35 113.75-9.48L113.75-9.48Q112.62-10.61 111.01-10.61L111.01-10.61Q110.22-10.61 109.51-10.31 108.8-10.02 108.26-9.48L108.26-9.48Q107.13-8.35 107.13-6.73L107.13-6.73Q107.13-5.14 108.26-4.01L108.26-4.01Q108.8-3.45 109.51-3.16 110.22-2.88 111.01-2.88L111.01-2.88Q111.81-2.88 112.46-3.15L112.46-3.15 113.62-0.27Q112.38 0.35 110.74 0.35L110.74 0.35Q109.25 0.35 108-0.2 106.75-0.75 105.83-1.72 104.92-2.69 104.41-3.99 103.9-5.28 103.9-6.73L103.9-6.73Q103.9-8.21 104.41-9.51 104.92-10.8 105.83-11.77 106.75-12.74 108-13.29 109.25-13.84 110.74-13.84L110.74-13.84Q112.06-13.84 113.08-13.44 114.1-13.03 114.88-12.41L114.88-12.41 114.88-13.49ZM123.23 0L123.23 0 120 0 120-18.85 123.23-18.85 123.23 0ZM139.17-4.79L141.46-2.53Q140.12-1.18 138.34-0.42 136.56 0.35 134.52 0.35L134.52 0.35Q132.5 0.35 130.7-0.42 128.91-1.18 127.58-2.52 126.25-3.85 125.48-5.64 124.71-7.43 124.71-9.45L124.71-9.45Q124.71-11.47 125.48-13.26 126.25-15.05 127.58-16.39 128.91-17.72 130.7-18.49 132.5-19.25 134.52-19.25L134.52-19.25Q136.56-19.25 138.34-18.49 140.12-17.72 141.46-16.37L141.46-16.37 139.17-14.08Q138.23-15.03 137.05-15.53 135.86-16.02 134.52-16.02L134.52-16.02Q133.2-16.02 132.01-15.53 130.83-15.03 129.88-14.08L129.88-14.08Q128.94-13.14 128.44-11.96 127.94-10.77 127.94-9.45L127.94-9.45Q127.94-8.13 128.44-6.93 128.94-5.74 129.88-4.79L129.88-4.79Q130.83-3.85 132.01-3.37 133.2-2.88 134.52-2.88L134.52-2.88Q135.86-2.88 137.05-3.37 138.23-3.85 139.17-4.79L139.17-4.79ZM149.6-13.84L149.6-13.84Q150.92-13.84 151.99-13.34 153.07-12.85 153.84-11.97 154.61-11.1 155.02-9.94 155.44-8.78 155.44-7.46L155.44-7.46 155.44 0 152.21 0 152.21-7.46Q152.21-8.11 151.97-8.67 151.72-9.24 151.27-9.69L151.27-9.69Q150.35-10.61 149.06-10.61L149.06-10.61Q147.74-10.61 146.82-9.69L146.82-9.69Q145.91-8.78 145.91-7.46L145.91-7.46 145.91 0 142.68 0 142.68-18.85 145.91-18.85 145.91-12.39Q146.63-13.03 147.55-13.44 148.46-13.84 149.6-13.84ZM167.64-13.49L170.87-13.49 170.87 0 167.64 0 167.64-6.73Q167.64-8.35 166.51-9.48L166.51-9.48Q165.38-10.61 163.76-10.61L163.76-10.61Q162.98-10.61 162.27-10.31 161.55-10.02 161.01-9.48L161.01-9.48Q159.88-8.35 159.88-6.73L159.88-6.73Q159.88-5.14 161.01-4.01L161.01-4.01Q161.55-3.45 162.27-3.16 162.98-2.88 163.76-2.88L163.76-2.88Q164.57-2.88 165.22-3.15L165.22-3.15 166.37-0.27Q165.13 0.35 163.49 0.35L163.49 0.35Q162.01 0.35 160.76-0.2 159.51-0.75 158.59-1.72 157.68-2.69 157.16-3.99 156.65-5.28 156.65-6.73L156.65-6.73Q156.65-8.21 157.16-9.51 157.68-10.8 158.59-11.77 159.51-12.74 160.76-13.29 162.01-13.84 163.49-13.84L163.49-13.84Q164.81-13.84 165.83-13.44 166.86-13.03 167.64-12.41L167.64-12.41 167.64-13.49ZM179.06-3.23L179.87 0 176.9 0Q175.99 0 175.18-0.35 174.37-0.7 173.78-1.31 173.19-1.91 172.84-2.72 172.49-3.53 172.49-4.44L172.49-4.44 172.49-16.18 175.72-16.99 175.72-11.85 177.6-11.85 178.41-8.62 175.72-8.62 175.72-4.44Q175.72-3.93 176.07-3.58 176.42-3.23 176.9-3.23L176.9-3.23 179.06-3.23Z" transform="translate(-0.9399999976158142, 19.25)"></path>
          </g>
          <!---->
          <!---->
          <!---->
          <!---->
          <!---->
          <!---->
          <!---->
        </g>
      </g>
      <!---->
    </g>
  </g>
  <defs v-gra="od"></defs>
</svg>